<?xml version="1.0" standalone="no"?>
<!DOCTYPE svg PUBLIC "-//W3C//DTD SVG 20010904//EN"
 "http://www.w3.org/TR/2001/REC-SVG-20010904/DTD/svg10.dtd">
<svg version="1.0" xmlns="http://www.w3.org/2000/svg"
 width="375.000000pt" height="375.000000pt" viewBox="0 0 375.000000 375.000000"
 preserveAspectRatio="xMidYMid meet">
<metadata>
Created by potrace 1.11, written by Peter Selinger 2001-2013
</metadata>
<g transform="translate(0.000000,375.000000) scale(0.100000,-0.100000)"
fill="#000000" stroke="none">
<path d="M1810 2826 c-163 -46 -321 -191 -421 -386 -33 -65 -33 -66 -33 -205
1 -168 19 -248 93 -400 84 -172 200 -324 399 -522 248 -246 505 -416 627 -415
140 1 376 153 639 411 269 264 416 483 478 714 18 65 22 109 22 212 1 120 -2
134 -26 188 -116 250 -334 416 -545 417 -155 0 -337 -80 -506 -222 -27 -23
-42 -29 -51 -23 -7 6 -50 38 -95 73 -188 142 -416 204 -581 158z"/>
<path d="M210 2788 c-48 -33 -72 -70 -77 -122 -8 -63 19 -129 65 -164 34 -26
42 -27 171 -32 l136 -5 3 -597 2 -596 -139 -4 c-122 -3 -143 -6 -167 -24 -85
-63 -100 -182 -32 -259 55 -63 83 -66 530 -63 361 3 396 5 431 22 57 28 81 69
85 146 4 80 -17 125 -74 157 -35 20 -53 23 -166 23 l-128 0 0 595 0 595 73 0
c103 0 197 16 226 38 50 37 71 80 71 147 0 73 -25 120 -80 147 -32 16 -76 18
-466 18 -431 0 -431 0 -464 -22z"/>
</g>
</svg>
